<?xml version="1.0" encoding="utf-8"?>
<!-- Svg Vector Icons : http://www.onlinewebfonts.com/icon -->
<!DOCTYPE svg PUBLIC "-//W3C//DTD SVG 1.1//EN" "http://www.w3.org/Graphics/SVG/1.1/DTD/svg11.dtd">
<svg version="1.1" xmlns="http://www.w3.org/2000/svg" xmlns:xlink="http://www.w3.org/1999/xlink" x="0px" y="0px" viewBox="0 0 1000 1000" enable-background="new 0 0 1000 1000" xml:space="preserve">
<metadata> Svg Vector Icons : http://www.onlinewebfonts.com/icon </metadata>
<g><path d="M505.4,167.5c-51.6,0-93.4,41.8-93.4,93.4h186.8C598.8,209.3,557,167.5,505.4,167.5z"/><path d="M890,10H760c-15.7,0-29.4,9.2-36.1,22.4l-0.1,0.2l-0.3,0.7c-0.4,0.8-0.8,1.6-1.1,2.5L615.8,287H131.5c-62.6,0-80.9,39.3-40.9,87.3L351.2,687c16.6,20.8,29.5,36.7,40.3,47.7V925h-137c-15.7,0-28.5,12.8-28.5,28.5v8.1c0,15.7,12.8,28.5,28.5,28.5h339.1c15.7,0,28.5-12.8,28.5-28.5v-8.1c0-15.7-12.8-28.5-28.5-28.5h-137V733.9c10.8-11.2,23.6-26.7,40.3-47l260.5-312.6c40-48.1,21.7-87.3-40.9-87.3h-19.4l81-195.8h112c22.3,0.2,40.6-18.1,40.6-40.5C930.6,28.2,912.3,10,890,10z"/></g>
</svg>