<?xml version="1.0" encoding="utf-8"?>
<!-- Svg Vector Icons : http://www.onlinewebfonts.com/icon -->
<!DOCTYPE svg PUBLIC "-//W3C//DTD SVG 1.1//EN" "http://www.w3.org/Graphics/SVG/1.1/DTD/svg11.dtd">
<svg version="1.1" xmlns="http://www.w3.org/2000/svg" xmlns:xlink="http://www.w3.org/1999/xlink" x="0px" y="0px" viewBox="0 0 1000 1000" enable-background="new 0 0 1000 1000" xml:space="preserve">
<metadata> Svg Vector Icons : http://www.onlinewebfonts.com/icon </metadata>
<g><g transform="translate(0.000000,511.000000) scale(0.100000,-0.100000)"><path d="M4641.3,5007.6c-37.5-3.9-153.7-17.7-256.3-29.6c-1125.5-128.1-2241.2-707.6-3019.8-1569c-682-755-1092-1643.9-1241.8-2696.6c-31.5-232.6-31.5-969.8,2-1212.3c207-1517.8,1044.7-2803,2339.8-3591.5c1214.2-737.2,2730.1-904.7,4090.2-451.4c2052,687.9,3423.9,2667,3341.1,4821.5c-31.5,847.6-256.3,1618.3-676.1,2327.9C8457.5,3892,7190,4739.6,5686.1,4970.2C5488.9,4999.8,4791.1,5025.4,4641.3,5007.6z M5404.2,3550.9c579.5-76.9,1111.7-283.8,1582.8-617c240.5-169.5,642.6-571.6,812.1-812.1c640.6-904.8,814.1-2054,469.1-3100.6c-82.8-252.3-309.5-697.8-467.2-920.5c-171.5-240.5-573.6-642.6-814.1-814.1c-222.7-157.7-668.2-384.4-920.5-467.2c-1046.7-345-2195.9-171.5-3100.6,469.1c-240.5,169.5-642.6,571.6-812.1,812.1c-640.6,906.7-814.1,2052-469.1,3100.6c82.8,252.3,309.5,697.8,467.2,920.5c171.5,240.5,573.6,642.6,814.1,814.1c222.7,157.7,668.2,384.4,920.5,467.2C4375.2,3564.8,4901.5,3616,5404.2,3550.9z"/><path d="M4603.9,3206c-356.8-45.3-798.3-189.2-1109.8-360.7C2680,2399.8,2118.2,1633,1919.1,702.6c-65-297.6-65-883.1-2-1178.8c69-315.4,134-504.6,272-782.6c159.7-325.2,339-575.6,589.4-827.9c963.9-963.9,2432.4-1190.6,3636.8-559.8c778.6,408,1362.1,1143.3,1578.9,1994.8c313.4,1226.1-173.5,2554.6-1204.4,3291.9c-218.8,155.7-630.8,364.7-861.4,435.6C5526.4,3200.1,4986.3,3253.3,4603.9,3206z M3243.8,722.3c110.4-74.9,216.8-138,232.6-138c17.7,2,49.3,29.6,71,65l39.4,63.1l1099.9,5.9l1099.9,3.9l33.5-59.1c59.1-104.5,102.5-98.6,325.2,51.3c110.4,74.9,207,138,212.9,141.9c5.9,2,35.5-17.7,65.1-45.3c49.3-45.3,53.2-57.2,43.3-177.4c-5.9-88.7,0-151.8,19.7-199.1c29.6-71,21.7-134-21.7-185.3c-13.8-15.8-29.6-51.3-33.5-78.8c-2-25.6-27.6-61.1-55.2-74.9c-47.3-25.6-61.1-19.7-254.3,112.4c-114.3,76.9-218.8,140-232.6,140c-13.8,0-29.6-23.7-37.5-53.2c-7.9-31.5-25.6-74.9-39.4-98.6l-27.6-45.3h-1092c-1200.4,0-1105.8-9.9-1172.8,124.2c-17.7,33.5-49.3,65-71,69c-23.7,3.9-124.2-51.2-242.4-132.1c-197.1-134.1-205-138-250.3-108.4c-61.1,39.4-71,72.9-61.1,210.9c5.9,72.9,0,138-19.7,181.4c-29.6,74.9-21.7,151.8,23.7,189.2c15.8,11.8,27.6,43.4,27.6,69c0,39.4,63.1,106.4,100.5,106.4C3034.8,860.3,3131.4,799.2,3243.8,722.3z M3632.1-251.4c159.7-122.2,301.6-209,343-209c19.7,0,39.4,19.7,47.3,47.3c29.6,116.3-25.6,112.4,1228,106.4l1149.2-5.9l70.9-84.8c43.4-49.3,90.7-82.8,114.3-82.8c21.7,0,136,67,252.3,147.8l212.9,147.8l57.2-41.4c65.1-45.3,63.1-41.4,67-224.7c2-74.9,15.8-167.5,29.6-201.1c25.6-61.1,25.6-67-23.7-118.3c-29.6-31.5-55.2-80.8-59.1-114.3c-3.9-39.4-23.7-69-69-94.6l-65-37.5l-112.4,88.7c-145.9,112.4-301.6,210.9-333.1,210.9c-13.8,0-33.5-29.6-47.3-67c-45.3-140,37.5-130.1-1263.5-126.2l-1170.9,5.9l-49.3,98.6c-31.5,63.1-63.1,100.5-88.7,104.5c-25.6,3.9-124.2-53.2-254.3-143.9l-212.9-147.8l-57.2,41.4c-65,45.3-63.1,41.4-67,224.7c-2,76.9-15.8,167.5-29.6,201.1c-25.6,61.1-25.6,67,25.6,120.2c31.5,31.5,53.2,76.9,53.2,108.4c0,39.4,17.7,65.1,65,92.6c33.5,21.7,65,39.4,69,39.4C3517.8-164.7,3571-204.1,3632.1-251.4z"/></g></g>
</svg>